HIERARCHY
ROOT Hips
{
  OFFSET 5.84602e-005 68.8428 3.50346
  CHANNELS 6 Xposition Yposition Zposition Zrotation Xrotation Yrotation
  JOINT Spine
  {
    OFFSET 0 8.597 -4.6522
    CHANNELS 3 Zrotation Xrotation Yrotation
    JOINT Spine1
    {
      OFFSET 0 7.8454 0.4098
      CHANNELS 3 Zrotation Xrotation Yrotation
      JOINT Spine2
      {
        OFFSET 0 9.7078 -2.1609
        CHANNELS 3 Zrotation Xrotation Yrotation
        JOINT Neck
        {
          OFFSET 0 21.8761 -0.4549
          CHANNELS 3 Zrotation Xrotation Yrotation
          JOINT Head
          {
            OFFSET 0 12.3537 3.3602
            CHANNELS 3 Zrotation Xrotation Yrotation
            End Site
            {
              OFFSET 0.0001 18.9506 0.5657
            }
          }
        }
        JOINT LeftShoulder
        {
          OFFSET 2.2086 21.1115 7.2329
          CHANNELS 3 Zrotation Xrotation Yrotation
          JOINT LeftArm
          {
            OFFSET 13.1193 3.0282 -4.8998
            CHANNELS 3 Zrotation Xrotation Yrotation
            JOINT LeftForeArm
            {
              OFFSET 27.4081 -0.0973053 -0.2375
              CHANNELS 3 Zrotation Xrotation Yrotation
              JOINT LeftHand
              {
                OFFSET 22.8641 0.0662994 -0.1369
                CHANNELS 3 Zrotation Xrotation Yrotation
                JOINT LeftHandIndex1
                {
                  OFFSET 8.8614 0.775009 2.4612
                  CHANNELS 3 Zrotation Xrotation Yrotation
                  JOINT LeftHandIndex2
                  {
                    OFFSET 3.3146 -0.808304 0.5841
                    CHANNELS 3 Zrotation Xrotation Yrotation
                    JOINT LeftHandIndex3
                    {
                      OFFSET 2.2628 -0.552002 0.3989
                      CHANNELS 3 Zrotation Xrotation Yrotation
                      End Site
                      {
                        OFFSET 1.6102 -0.4807 0.2612
                      }
                    }
                  }
                }
                JOINT LeftHandMiddle1
                {
                  OFFSET 8.9937 0.895004 0.2143
                  CHANNELS 3 Zrotation Xrotation Yrotation
                  JOINT LeftHandMiddle2
                  {
                    OFFSET 4.0984 0.0113983 -0.0242
                    CHANNELS 3 Zrotation Xrotation Yrotation
                    JOINT LeftHandMiddle3
                    {
                      OFFSET 2.2716 0.00689697 -0.0138001
                      CHANNELS 3 Zrotation Xrotation Yrotation
                      End Site
                      {
                        OFFSET 2.0404 -0.1441 0.0027
                      }
                    }
                  }
                }
                JOINT LeftHandRing1
                {
                  OFFSET 8.5234 0.597198 -2.0164
                  CHANNELS 3 Zrotation Xrotation Yrotation
                  JOINT LeftHandRing2
                  {
                    OFFSET 3.7188 -0.188293 -0.2328
                    CHANNELS 3 Zrotation Xrotation Yrotation
                    JOINT LeftHandRing3
                    {
                      OFFSET 2.1191 -0.106598 -0.1332
                      CHANNELS 3 Zrotation Xrotation Yrotation
                      End Site
                      {
                        OFFSET 1.8737 -0.2304 -0.0886
                      }
                    }
                  }
                }
                JOINT LeftHandPinky1
                {
                  OFFSET 7.9094 -0.601089 -3.4825
                  CHANNELS 3 Zrotation Xrotation Yrotation
                  JOINT LeftHandPinky2
                  {
                    OFFSET 2.2874 -0.477005 -0.6314
                    CHANNELS 3 Zrotation Xrotation Yrotation
                    JOINT LeftHandPinky3
                    {
                      OFFSET 1.6774 -0.349396 -0.4633
                      CHANNELS 3 Zrotation Xrotation Yrotation
                      End Site
                      {
                        OFFSET 1.4888 -0.4091 -0.3416
                      }
                    }
                  }
                }
                JOINT LeftHandThumb1
                {
                  OFFSET 1.833 -1.3875 1.3896
                  CHANNELS 3 Zrotation Xrotation Yrotation
                  JOINT LeftHandThumb2
                  {
                    OFFSET 3.4129 -1.121 2.5732
                    CHANNELS 3 Zrotation Xrotation Yrotation
                    JOINT LeftHandThumb3
                    {
                      OFFSET 2.2474 -0.804199 1.6192
                      CHANNELS 3 Zrotation Xrotation Yrotation
                      End Site
                      {
                        OFFSET 1.6527 -0.5689 1.1317
                      }
                    }
                  }
                }
              }
            }
          }
        }
        JOINT RightShoulder
        {
          OFFSET -2.2086 21.1115 7.2329
          CHANNELS 3 Zrotation Xrotation Yrotation
          JOINT RightArm
          {
            OFFSET -13.1216 3.0287 -4.9007
            CHANNELS 3 Zrotation Xrotation Yrotation
            JOINT RightForeArm
            {
              OFFSET -27.4081 -0.0973053 -0.2375
              CHANNELS 3 Zrotation Xrotation Yrotation
              JOINT RightHand
              {
                OFFSET -22.8641 0.0664063 -0.1369
                CHANNELS 3 Zrotation Xrotation Yrotation
                JOINT RightHandIndex1
                {
                  OFFSET -8.8614 0.774994 2.4612
                  CHANNELS 3 Zrotation Xrotation Yrotation
                  JOINT RightHandIndex2
                  {
                    OFFSET -3.3146 -0.808304 0.5841
                    CHANNELS 3 Zrotation Xrotation Yrotation
                    JOINT RightHandIndex3
                    {
                      OFFSET -2.2628 -0.552002 0.3989
                      CHANNELS 3 Zrotation Xrotation Yrotation
                      End Site
                      {
                        OFFSET -1.6102 -0.4807 0.2612
                      }
                    }
                  }
                }
                JOINT RightHandMiddle1
                {
                  OFFSET -8.9937 0.894989 0.2143
                  CHANNELS 3 Zrotation Xrotation Yrotation
                  JOINT RightHandMiddle2
                  {
                    OFFSET -4.0984 0.0113983 -0.0242
                    CHANNELS 3 Zrotation Xrotation Yrotation
                    JOINT RightHandMiddle3
                    {
                      OFFSET -2.2716 0.00691223 -0.0138001
                      CHANNELS 3 Zrotation Xrotation Yrotation
                      End Site
                      {
                        OFFSET -2.0404 -0.1441 0.0027
                      }
                    }
                  }
                }
                JOINT RightHandRing1
                {
                  OFFSET -8.5234 0.597198 -2.0164
                  CHANNELS 3 Zrotation Xrotation Yrotation
                  JOINT RightHandRing2
                  {
                    OFFSET -3.7188 -0.188309 -0.2328
                    CHANNELS 3 Zrotation Xrotation Yrotation
                    JOINT RightHandRing3
                    {
                      OFFSET -2.1191 -0.106598 -0.1332
                      CHANNELS 3 Zrotation Xrotation Yrotation
                      End Site
                      {
                        OFFSET -1.8737 -0.2304 -0.0886
                      }
                    }
                  }
                }
                JOINT RightHandPinky1
                {
                  OFFSET -7.9094 -0.601105 -3.4825
                  CHANNELS 3 Zrotation Xrotation Yrotation
                  JOINT RightHandPinky2
                  {
                    OFFSET -2.2874 -0.477005 -0.6314
                    CHANNELS 3 Zrotation Xrotation Yrotation
                    JOINT RightHandPinky3
                    {
                      OFFSET -1.6774 -0.349396 -0.4633
                      CHANNELS 3 Zrotation Xrotation Yrotation
                      End Site
                      {
                        OFFSET -1.4888 -0.4091 -0.3416
                      }
                    }
                  }
                }
                JOINT RightHandThumb1
                {
                  OFFSET -1.833 -1.38751 1.3896
                  CHANNELS 3 Zrotation Xrotation Yrotation
                  JOINT RightHandThumb2
                  {
                    OFFSET -3.41299 -1.12099 2.5732
                    CHANNELS 3 Zrotation Xrotation Yrotation
                    JOINT RightHandThumb3
                    {
                      OFFSET -2.24741 -0.804108 1.6192
                      CHANNELS 3 Zrotation Xrotation Yrotation
                      End Site
                      {
                        OFFSET -1.6527 -0.5689 1.1317
                      }
                    }
                  }
                }
              }
            }
          }
        }
      }
    }
  }
  JOINT RightUpLeg
  {
    OFFSET -9.1966 3.8861 -0.7581
    CHANNELS 3 Zrotation Xrotation Yrotation
    JOINT RightLeg
    {
      OFFSET -0.7359 -41.0265 0
      CHANNELS 3 Zrotation Xrotation Yrotation
      JOINT RightFoot
      {
        OFFSET 0 -40.2855 0
        CHANNELS 3 Zrotation Xrotation Yrotation
        JOINT RightToeBase
        {
          OFFSET 0 -5.6122 11.7359
          CHANNELS 3 Zrotation Xrotation Yrotation
          End Site
          {
            OFFSET 0 0 7.8731
          }
        }
      }
    }
  }
  JOINT LeftUpLeg
  {
    OFFSET 9.1965 3.8864 -0.7581
    CHANNELS 3 Zrotation Xrotation Yrotation
    JOINT LeftLeg
    {
      OFFSET 0.7359 -41.0268 0
      CHANNELS 3 Zrotation Xrotation Yrotation
      JOINT LeftFoot
      {
        OFFSET 0 -40.2855 0
        CHANNELS 3 Zrotation Xrotation Yrotation
        JOINT LeftToeBase
        {
          OFFSET 0 -5.6122 11.7359
          CHANNELS 3 Zrotation Xrotation Yrotation
          End Site
          {
            OFFSET 0 0 7.8731
          }
        }
      }
    }
  }
}
MOTION
Frames:	6
Frame Time:	0.0333333
7.71844 21.3059 -30.622 0 33.9971 -0 0.875468 11.7803 -0.548852 1.93257 23.5498 -1.32987 1.93257 23.5498 -1.32987 0.304158 -1.57946 -0.0300153 0.0317078 -1.78223 -0.0109889 -12.7907 -9.88946 -15.09 -38.6968 8.04893 -51.6616 -6.58648 -17.972 -30.4048 13.4163 -40.1562 8.36212 -2.20695e-032 -1.59028e-015 -7.95139e-016 -9.93923e-017 -1.59028e-015 -3.97569e-016 -2.98177e-016 -1.59028e-015 -7.95139e-016 -2.20695e-032 -1.59028e-015 -7.95139e-016 -0.01463 -8.95072e-005 2.50178e-007 8.91007e-009 -6.5319e-007 3.14947e-007 -2.20695e-032 -1.59028e-015 -7.95139e-016 -0.0187964 -0.00117794 5.9578e-005 1.22253e-014 0 -4.77083e-015 -2.20695e-032 -1.59028e-015 -7.95139e-016 -0.0122882 -0.00325466 0.000679736 1.23246e-014 -3.18055e-015 -3.18055e-015 -2.20695e-032 -1.59028e-015 -7.95139e-016 -9.93923e-017 -1.59028e-015 -3.97569e-016 -2.98177e-016 -1.59028e-015 -7.95139e-016 3.48046 -12.6976 16.3419 35.0352 3.65377 61.84 9.38512 -16.5922 37.17 -54.1356 -21.114 -18.304 -2.85586e-007 -8.5906e-007 -1.44246e-006 -7.98687e-007 1.63311e-006 8.84976e-007 9.4148e-007 -1.20358e-006 -1.63746e-007 -2.85586e-007 -8.5906e-007 -1.44246e-006 0.014995 -9.16059e-005 3.60812e-008 -1.42786e-007 -4.29624e-007 -7.21174e-007 -2.85586e-007 -8.5906e-007 -1.44246e-006 0.0189831 -0.00118924 -5.95386e-005 9.44028e-007 -1.20376e-006 -1.63565e-007 -2.85586e-007 -8.5906e-007 -1.44246e-006 0.0122713 -0.00324505 -0.000677634 -1.22874e-006 3.44805e-007 -1.27863e-006 -2.85586e-007 -8.5906e-007 -1.44246e-006 -7.98687e-007 1.63311e-006 8.84976e-007 9.4148e-007 -1.20358e-006 -1.63746e-007 -16.5838 -59.1371 -5.3855 -172.347 55.3338 171.497 -12.6166 50.294 13.8483 -4.23691e-008 1.64871e-006 8.28788e-007 32.4598 -52.8949 -0.48984 167.381 70.3732 -168.432 21.149 53.5973 -40.7166 -7.52689e-009 -8.19957e-009 -8.7653e-007 
7.71844 21.3059 -30.622 0 33.9971 -0 0.87508 11.7918 -0.549198 1.93211 23.5728 -1.3308 1.93211 23.5728 -1.3308 0.387832 -2.00609 -0.0282953 0.0406462 -2.26389 -0.0126489 -12.7002 -9.91419 -15.1687 -38.1624 7.88738 -51.9054 -6.57818 -17.9767 -30.3871 13.2438 -40.1751 8.02655 1.10348e-032 1.59028e-015 -3.97569e-016 9.93923e-017 3.18055e-015 -3.97569e-016 -9.93923e-017 1.59028e-015 -7.95139e-016 1.10348e-032 1.59028e-015 -3.97569e-016 -0.0146197 -8.8093e-005 2.91438e-007 1.2424e-014 0 -3.18055e-015 1.10348e-032 1.59028e-015 -3.97569e-016 -0.0187583 -0.00117506 6.03491e-005 3.10199e-008 -6.98761e-007 3.62655e-007 1.10348e-032 1.59028e-015 -3.97569e-016 -0.012286 -0.00325401 0.000674465 3.97569e-016 -1.59028e-015 3.97569e-016 1.10348e-032 1.59028e-015 -3.97569e-016 9.93923e-017 3.18055e-015 -3.97569e-016 -9.93923e-017 1.59028e-015 -7.95139e-016 3.40497 -12.7194 16.3398 34.5413 3.45846 62.0537 9.38484 -16.5925 37.17 -54.2869 -21.0115 -18.306 -1.43255e-007 -4.28397e-007 -7.21393e-007 1.98785e-015 -4.77083e-015 -3.18055e-015 -1.43255e-007 -4.28397e-007 -7.21393e-007 -1.43255e-007 -4.28397e-007 -7.21393e-007 0.0149956 -8.96898e-005 -1.98555e-007 -1.43247e-007 -4.28491e-007 -7.21337e-007 -1.43255e-007 -4.28397e-007 -7.21393e-007 0.0189893 -0.00118878 -6.23547e-005 -1.43251e-007 -4.28517e-007 -7.2132e-007 -1.43255e-007 -4.28397e-007 -7.21393e-007 0.0122788 -0.00325081 -0.000677397 -1.43266e-007 -4.28477e-007 -7.21343e-007 -1.43255e-007 -4.28397e-007 -7.21393e-007 1.98785e-015 -4.77083e-015 -3.18055e-015 -1.43255e-007 -4.28397e-007 -7.21393e-007 -16.5838 -59.1371 -5.3855 -172.347 55.3338 171.497 -12.6166 50.294 13.8483 -4.23691e-008 1.64871e-006 8.28788e-007 32.4597 -52.8949 -0.489876 167.381 70.3732 -168.432 21.149 53.5972 -40.7166 -2.13327e-007 1.05966e-008 -8.23199e-007 
7.71844 21.3059 -30.622 0 33.9971 -0 0.874691 11.8033 -0.549544 1.93165 23.5959 -1.33173 1.93165 23.5959 -1.33173 0.462643 -2.38727 -0.0261439 0.0486218 -2.69414 -0.0140587 -12.6194 -9.93639 -15.2389 -37.6856 7.74065 -52.1217 -6.56989 -17.9814 -30.3693 13.0895 -40.1915 7.72678 0 1.59028e-015 -0 0 1.59028e-015 -0 2.20695e-032 3.18055e-015 -3.97569e-016 0 1.59028e-015 -0 -0.0145918 -8.84496e-005 -7.69297e-007 -9.93923e-017 3.18055e-015 -0 0 1.59028e-015 -0 -0.0187669 -0.00117614 6.12724e-005 0 1.59028e-015 -0 0 1.59028e-015 -0 -0.0122224 -0.00323505 0.000677548 -1.98785e-016 0 -3.97569e-016 0 1.59028e-015 -0 0 1.59028e-015 -0 2.20695e-032 3.18055e-015 -3.97569e-016 3.34097 -12.738 16.3381 34.1007 3.28187 62.2429 9.38458 -16.5928 37.1699 -54.438 -20.9089 -18.3076 -2.35774e-006 1.4514e-006 -1.43444e-006 3.97569e-016 1.59028e-015 -3.18055e-015 -3.57812e-015 1.59028e-015 -3.18055e-015 -2.35774e-006 1.4514e-006 -1.43444e-006 0.0149822 -9.02183e-005 -3.90212e-007 1.19271e-015 0 -0 -2.35774e-006 1.4514e-006 -1.43444e-006 0.0189853 -0.0011873 -6.32723e-005 -7.95139e-016 0 3.18055e-015 -2.35774e-006 1.4514e-006 -1.43444e-006 0.0122878 -0.00325415 -0.000677689 1.19271e-015 4.77083e-015 3.18055e-015 -2.35774e-006 1.4514e-006 -1.43444e-006 3.97569e-016 1.59028e-015 -3.18055e-015 -3.57812e-015 1.59028e-015 -3.18055e-015 -16.5838 -59.1371 -5.3855 -172.347 55.3338 171.497 -12.6167 50.294 13.8484 1.30524e-007 8.47267e-008 1.24773e-006 32.4595 -52.895 -0.490074 167.382 70.3732 -168.432 21.149 53.5973 -40.7166 4.19126e-007 -2.93929e-008 7.69867e-007 
7.71844 21.3059 -30.622 0 33.9971 -0 0.874303 11.8149 -0.549891 1.93119 23.619 -1.33266 1.93119 23.619 -1.33266 0.537495 -2.76851 -0.0234875 0.0565969 -3.12457 -0.0154094 -12.5387 -9.95871 -15.3091 -37.2092 7.59203 -52.3367 -6.56157 -17.9862 -30.3515 12.9351 -40.2072 7.42686 -9.93923e-017 1.59028e-015 3.97569e-016 -1.10348e-032 1.59028e-015 3.97569e-016 -1.49089e-016 3.18055e-015 1.98785e-016 -9.93923e-017 1.59028e-015 3.97569e-016 -0.0146324 -8.86991e-005 -4.5983e-007 -4.96962e-017 0 -3.97569e-016 -9.93923e-017 1.59028e-015 3.97569e-016 -0.0187571 -0.0011745 5.84594e-005 4.96962e-017 -1.59028e-015 3.97569e-016 -9.93923e-017 1.59028e-015 3.97569e-016 -0.0122965 -0.00325339 0.000678095 1.98785e-016 -1.59028e-015 3.97569e-016 -9.93923e-017 1.59028e-015 3.97569e-016 -1.10348e-032 1.59028e-015 3.97569e-016 -1.49089e-016 3.18055e-015 1.98785e-016 3.27695 -12.7566 16.3362 33.6604 3.10368 62.4307 9.38428 -16.5931 37.1698 -54.5889 -20.8065 -18.309 3.97569e-015 -1.59028e-015 -0 3.97569e-015 -3.18055e-015 -6.36111e-015 -2.38542e-015 -6.36111e-015 3.18055e-015 3.97569e-015 -1.59028e-015 -0 0.0149812 -8.96667e-005 -2.56834e-006 2.38542e-015 -3.18055e-015 3.18055e-015 3.97569e-015 -1.59028e-015 -0 0.0189807 -0.00118834 -6.0522e-005 -2.3509e-006 1.48433e-006 -1.39386e-006 3.97569e-015 -1.59028e-015 -0 0.0122701 -0.00324876 -0.000676731 -1.59028e-015 0 -3.18055e-015 3.97569e-015 -1.59028e-015 -0 3.97569e-015 -3.18055e-015 -6.36111e-015 -2.38542e-015 -6.36111e-015 3.18055e-015 -16.5838 -59.1371 -5.3855 -172.347 55.3338 171.497 -12.6167 50.294 13.8484 1.30524e-007 8.47267e-008 1.24773e-006 32.4598 -52.8949 -0.489794 167.381 70.3732 -168.432 21.149 53.5973 -40.7166 -7.95139e-016 -3.18055e-015 -0 
7.71844 21.3059 -30.622 0 33.9971 -0 0.873914 11.8264 -0.550236 1.93073 23.6421 -1.33359 1.93073 23.6421 -1.33359 0.612433 -3.14993 -0.0203335 0.0645654 -3.55531 -0.0167004 -12.458 -9.98112 -15.3793 -36.7332 7.44152 -52.5507 -6.55326 -17.991 -30.3336 12.7805 -40.2223 7.12676 1.10348e-032 3.18055e-015 -1.98785e-016 -1.98785e-016 4.77083e-015 -0 4.96962e-017 3.18055e-015 -3.97569e-016 1.10348e-032 3.18055e-015 -1.98785e-016 -0.0146249 -8.92289e-005 8.03253e-009 -3.41566e-008 2.17464e-007 1.08938e-007 1.10348e-032 3.18055e-015 -1.98785e-016 -0.0187429 -0.0011739 5.94358e-005 1.49089e-016 0 -0 1.10348e-032 3.18055e-015 -1.98785e-016 -0.0122738 -0.00324758 0.000674995 1.49089e-016 -1.59028e-015 -1.98785e-016 1.10348e-032 3.18055e-015 -1.98785e-016 -1.98785e-016 4.77083e-015 -0 4.96962e-017 3.18055e-015 -3.97569e-016 3.21293 -12.7751 16.3344 33.2204 2.92395 62.6173 9.38401 -16.5934 37.1698 -54.7398 -20.704 -18.3101 3.03288e-007 1.8688e-006 -1.27929e-007 2.88774e-006 -3.17698e-007 -5.77758e-007 -3.18055e-015 3.18055e-015 -3.18055e-015 3.03288e-007 1.8688e-006 -1.27929e-007 0.0149945 -8.98987e-005 -1.65991e-006 5.56597e-015 4.77083e-015 -0 3.03288e-007 1.8688e-006 -1.27929e-007 0.0190181 -0.00119424 -6.134e-005 -1.43125e-014 3.18055e-015 -0 3.03288e-007 1.8688e-006 -1.27929e-007 0.0122855 -0.00325318 -0.000678545 -2.34619e-006 1.51732e-006 -1.35284e-006 3.03288e-007 1.8688e-006 -1.27929e-007 2.88774e-006 -3.17698e-007 -5.77758e-007 -3.18055e-015 3.18055e-015 -3.18055e-015 -16.5838 -59.1371 -5.3855 -172.347 55.3338 171.497 -12.6167 50.294 13.8484 1.30524e-007 8.47267e-008 1.24773e-006 32.4595 -52.895 -0.490074 167.382 70.3732 -168.432 21.149 53.5973 -40.7166 2.13327e-007 -1.05967e-008 8.23199e-007 
7.71844 21.3059 -30.622 0 33.9971 -0 0.873526 11.838 -0.550582 1.93027 23.6651 -1.33452 1.93027 23.6652 -1.33452 0.687429 -3.53128 -0.0166702 0.0725361 -3.98617 -0.0179354 -12.3773 -10.0036 -15.4495 -36.2575 7.28912 -52.7634 -6.54497 -17.9957 -30.3158 12.6257 -40.2367 6.82649 2.73329e-016 -3.18055e-015 -9.93923e-017 2.48481e-016 -3.18055e-015 -3.97569e-016 1.49089e-016 -1.59028e-015 -1.98785e-016 2.73329e-016 -3.18055e-015 -9.93923e-017 -0.0145842 -8.7973e-005 -3.21448e-007 -4.96962e-017 -4.77083e-015 9.93923e-017 2.73329e-016 -3.18055e-015 -9.93923e-017 -0.0187829 -0.00117737 5.9493e-005 -1.2424e-016 0 -0 2.73329e-016 -3.18055e-015 -9.93923e-017 -0.0122465 -0.00324304 0.000674505 -1.2424e-016 -1.59028e-015 -9.93923e-017 2.73329e-016 -3.18055e-015 -9.93923e-017 2.48481e-016 -3.18055e-015 -3.97569e-016 1.49089e-016 -1.59028e-015 -1.98785e-016 3.1489 -12.7937 16.3326 32.7809 2.74263 62.8026 9.38372 -16.5937 37.1697 -54.8905 -20.6015 -18.3109 3.97569e-015 1.59028e-015 -6.36111e-015 -3.97569e-015 0 -0 -7.95139e-016 3.18055e-015 3.18055e-015 3.97569e-015 1.59028e-015 -6.36111e-015 0.0149924 -8.78733e-005 -1.88059e-006 7.15625e-015 0 6.36111e-015 3.97569e-015 1.59028e-015 -6.36111e-015 0.0190067 -0.00119337 -5.56444e-005 -4.77083e-015 1.59028e-015 3.18055e-015 3.97569e-015 1.59028e-015 -6.36111e-015 0.0122995 -0.00325529 -0.000676647 -2.19592e-006 1.97409e-006 -5.89734e-007 3.97569e-015 1.59028e-015 -6.36111e-015 -3.97569e-015 0 -0 -7.95139e-016 3.18055e-015 3.18055e-015 -16.5838 -59.1371 -5.3855 -172.347 55.3338 171.497 -12.6167 50.294 13.8484 1.30524e-007 8.47267e-008 1.24773e-006 32.4599 -52.8949 -0.489741 167.381 70.3733 -168.432 21.149 53.5973 -40.7166 -7.5271e-009 -8.19957e-009 -8.7653e-007 
